<svg width="120" height="120" viewBox="0 0 120 120" fill="none" xmlns="http://www.w3.org/2000/svg">
<path d="M36.5493 98.4374C36.5493 100.509 38.2276 102.187 40.298 102.187H79.6585C81.7289 102.187 83.4072 100.509 83.4072 98.4374V83.4374H36.5493V98.4374Z" fill="black"/>
<path d="M98.4018 83.4374C100.472 83.4374 102.15 81.7585 102.15 79.6874V40.3126C102.15 38.2415 100.472 36.5626 98.4018 36.5626H83.4072V83.4374H98.4018Z" fill="black"/>
<path d="M21.5548 83.4374C19.4845 83.4374 17.8062 81.7585 17.8062 79.6874V40.3126C17.8062 38.2415 19.4845 36.5626 21.5548 36.5626H36.5495V83.4374H21.5548Z" fill="black"/>
<path d="M36.5493 21.5625C36.5493 19.4914 38.2276 17.8125 40.298 17.8125H79.6585C81.7289 17.8125 83.4072 19.4914 83.4072 21.5625V36.5626H36.5493V21.5625Z" fill="black"/>
</svg>
